<?xml version="1.0" encoding="utf-8"?>
<!-- Generator: Adobe Illustrator 22.1.0, SVG Export Plug-In . SVG Version: 6.00 Build 0)  -->
<svg version="1.1" id="Capa_1" xmlns="http://www.w3.org/2000/svg" xmlns:xlink="http://www.w3.org/1999/xlink" x="0px" y="0px"
	 viewBox="0 0 640 480" style="enable-background:new 0 0 640 480;" xml:space="preserve">
<style type="text/css">
	.st0{fill:#383278;}
	.st1{fill:none;stroke:#1B1464;stroke-width:5;stroke-miterlimit:10;}
	.st2{fill:none;}
	.st3{fill:none;stroke:#FF0000;stroke-miterlimit:10;}
	.st4{font-family:'GillSans-UltraBold';}
	.st5{font-size:42px;}
	.st6{clip-path:url(#SVGID_2_);}
	.st7{fill:#FF0000;}
	.st8{fill:none;stroke:#2E3192;stroke-miterlimit:10;}
	.st9{fill:#C94248;}
</style>
<g>
	<g>
		<g>
			<g>
				<g>
					<path class="st0" d="M531.5,244.5c0.3,0.5,0.9,0.2,0.7-1.1l-1-0.9L531.5,244.5z"/>
					<path class="st0" d="M533.1,235.8c-0.6-1.5-1.6-3.2-2.4-2.1c1.1,1.4,0.7,1.8,2,3.3c0.2,1.3-0.3,2.3-0.6,2.1
						c0.3,0.4-0.2,2,0.5,2.7c0.4-0.8,0.5-1.8,0.5-2.8c0-1-0.2-2.1-0.6-3.2C532.6,235.3,532.9,235.7,533.1,235.8z"/>
					<path class="st0" d="M474.6,127.7l0.6,0.6C475.1,128.1,474.9,127.9,474.6,127.7z"/>
					<path class="st0" d="M401,100.9c0.6,0,0.9-0.1,0.9-0.1C401.4,100.8,400.9,100.8,401,100.9z"/>
					<path class="st0" d="M387.5,99.6c0.3,0,0.5,0,0.8,0C388,99.5,387.6,99.5,387.5,99.6z"/>
					<path class="st0" d="M474.6,127.7l-1.5-1.5C472.8,126.4,473.8,127,474.6,127.7z"/>
					<path class="st0" d="M528.6,219c0.1,0.4,0.3,0.8,0.5,1.1c-0.1-0.3-0.2-0.7-0.3-1C528.7,219,528.6,219,528.6,219z"/>
					<path class="st0" d="M500.9,150.6l0.4,0.5c0.2,0.1,0.4,0.1,0.7,0.1L500.9,150.6z"/>
					<path class="st0" d="M516.6,172.5c-0.3-0.5-1.1-0.3-1.5-0.3c0.5,0.1,0.8,0.4,1.2,0.9C516.4,173,516.5,172.8,516.6,172.5z"/>
					<path class="st0" d="M530.7,212.5l0.3,0.7C530.9,213,530.8,212.7,530.7,212.5z"/>
					<path class="st0" d="M487.6,136.8c0-0.1,0-0.3,0-0.4C487.5,136.4,487.5,136.6,487.6,136.8z"/>
					<path class="st0" d="M526.3,274.2c0.1,0,0.1,0,0.1,0C526.4,274,526.4,274,526.3,274.2z"/>
					<path class="st0" d="M533.7,244.5l0,0.4c0.2,0,0.3,0.1,0.5,0.1L533.7,244.5z"/>
					<path class="st0" d="M362.4,101.3c0,0,0.1,0,0.1,0C363.2,101.1,362.8,101.2,362.4,101.3z"/>
					<path class="st0" d="M249.3,275.3c0.2-2.7,1.9,3.9,1.8-0.1C250.9,275.6,249.1,272,249.3,275.3z"/>
					<path class="st0" d="M528.6,218.3c-0.1-0.3-0.1-0.7-0.2-1.1C528.4,217.7,528.5,218,528.6,218.3z"/>
					<path class="st0" d="M251.1,275.2L251.1,275.2l0-0.4C251.1,275,251.1,275.1,251.1,275.2z"/>
					<path class="st0" d="M309.5,124.2c0.2,0.1,0.4,0,0.7,0C310.2,124.1,310,124,309.5,124.2z"/>
					<path class="st0" d="M348.6,106.6l-1,0.2C348,106.8,348.3,106.7,348.6,106.6z"/>
					<path class="st0" d="M292.9,139c-0.5,0.3-0.7,0.4-1.2,1c0.1,0,0.2,0,0.2-0.1C292.1,139.7,292.3,139.4,292.9,139z"/>
					<path class="st0" d="M277.4,156.1c0.1-0.1,0.3-0.2,0.4-0.2c0.1-0.2,0.3-0.4,0.4-0.6L277.4,156.1z"/>
					<path class="st0" d="M497.1,334c0.5-0.2,0.9-0.3,1.3-0.3C497.7,333.6,499.7,331,497.1,334z"/>
					<path class="st0" d="M529,218.9c-0.2-0.1-0.4-0.3-0.5-0.6c0.1,0.2,0.1,0.5,0.2,0.7C528.9,219,529,219,529,218.9z"/>
					<path class="st0" d="M296.8,144.5l-2.6,2.3C295,146.2,295.9,145.4,296.8,144.5z"/>
					<path class="st0" d="M353.2,377.7l0.8,0.1C353.7,377.7,353.4,377.6,353.2,377.7z"/>
					<path class="st0" d="M287.2,154.5c-0.6,0.3-1.2,0.7-1.7,1.1c0,0.2-0.1,0.3-0.1,0.4L287.2,154.5z"/>
					<path class="st0" d="M498.4,333.7C498.4,333.7,498.4,333.7,498.4,333.7C498.4,333.7,498.4,333.7,498.4,333.7z"/>
					<path class="st0" d="M510,313.6c-1.7,2.9,0.2,1.9,0.3,2.9c-1.9,3.6-1.7,1.1-2.9,2c-0.5,1.1-0.9,2.2-1.2,3.3
						c-0.3,1-0.7,1.9-1.3,2.7c-0.2,0-0.5,0.3-0.4-0.2c-0.2,0.7-0.6,1.4-1.1,2.2c-0.2,0.4-0.5,0.8-0.8,1.2c-0.3,0.4-0.6,0.8-0.9,1.2
						c-1.2,1.6-2.4,3.3-3,4.8c-0.2,0.1-0.4,0.1-0.5,0.1c0.8,0,1.2,0.3,1.5,0.6c-1,1.2-1.3,2.6-2.3,2.6c0.6-0.7,0.5-0.9,0.6-1.4
						l-0.8,1.4c-1.7,0.4,1.2-1.9,0.6-2.4c-0.9,1.3-1.8,2.7-2.6,4.1c-0.9,1.3-1.9,2.5-2.8,3.3c-1.1-0.3,3.6-4.3,0.7-2.6l1.4-1.2
						l1.3-1.3c-3,1,1.5-1.6-1.4-0.8c-0.4,0.4-0.8,0.8-1.1,1.2c-0.3,0.3-0.6,0.7-0.9,1c-0.5,0.6-0.9,1.1-1.4,1.7
						c-0.8,1-1.6,2.2-3.5,3.7c-0.4,1.1,0.8,0.4,0.5,1.5c-1.1,1.4-2,2.2-2.7,2.7c-0.8,0.5-1.5,0.6-2.1,0.8c-1.2,0.3-2.3,0.4-3.7,2.6
						c-0.6,1.3-0.2,2.6-3.4,4.3l0.3-1.7c-1.9,1.4-2.1,2.1-2.5,2.8c-0.4,0.7-0.8,1.3-3,2.4c0.4-0.9,2.8-2.4,2.1-2.1
						c-3.1,1.1-1.4,1.8-3.4,3.2l-1-0.6c-1,0.7-2,1.4-3.1,2.2c-1,0.8-2.1,1.6-3.2,2.4c-2.2,1.5-4.4,3.2-6.9,4.4
						c0.1-0.4,0.8-1.1-0.5-0.8c-0.7,0.5-1.5,0.9-2.3,1.3c-0.4,0.2-0.8,0.4-1.2,0.6c-0.4,0.2-0.8,0.4-1.2,0.6c-1.7,0.7-3.3,1.5-5,2.1
						c-1.7,0.6-3.5,1.1-5.2,1.7c-0.8,0.3-1.7,0.5-2.5,0.7c-0.8,0.2-1.7,0.4-2.5,0.6l-2.1,1.7c-0.6,0.2-1.2-0.1-0.6-0.4
						c-2.6,0.4,0,0.6-1.1,1.2c-1.4,0.5-2,0-1.2-0.5c-4.1,2.1-12.4,4.7-17.3,4.5l0.9-0.4c-1.9,0.2-2.9,0.7-3.8,1.2
						c-1,0.5-1.9,1-3.7,0.8l0.7-0.2c-4.1,0.2-8.4,0.7-12.5,0.7c-1,0-2,0-3,0c-1,0-1.9-0.1-2.9-0.2c-1.9-0.2-3.6-0.4-5.1-0.8
						c-0.6,0.6-2.6,0.3-4.6,0.1c-1.9-0.2-3.8-0.5-4.1,0.3c-2.3-0.7-3.1-1.1-4.1-1.5c-1-0.4-2.3-0.9-5.4-1.8
						c-1.7-0.4-2.8,0.6-4.9,0.3l0.2-0.9l-3.1,0.3c-0.4-0.5-0.8-1-1.2-1.5l-2-0.3c0.8,0.3,1.5,0.9,1.4,1.1c-1.6-0.2-3.4-0.9-4.8-1.6
						c-1.4-0.7-2.4-1.5-2.3-1.7l-3.7-0.8c-1.2-0.3-2.4-0.7-3.6-1c0.3-0.3,1.5,0.1,2.5,0.2c-4.1-0.6-0.3-1.2-4-1.7
						c0.4,0.4-0.5,0.4-0.6,0.6c-0.8-0.6-2.1-1.3-3.6-2c-1.5-0.7-3.2-1.4-4.6-2l0.8-0.3c-1.2-0.7-2.5-1.3-3.8-2c-0.7-0.3-1.3-0.6-2-1
						c-0.7-0.3-1.3-0.7-2-1.1c-1.3-0.7-2.7-1.4-4-2.2c-1.3-0.8-2.6-1.6-3.9-2.5c1.7,1.5,0.7,2.1-0.9,1.2l-0.1-1.2
						c-1.3-0.1,1.4,1.3-1.1,0.6c-1.9-1.4-0.7-1.8,0.6-1.3l-2.5-1.4c0-0.3,0.7-0.1,1-0.3c-1.3-0.2-3.4-3.6-5.3-3.8l0.1-0.3
						c-1.2-1-2.3-1.8-3.3-2.5c-1-0.8-1.8-1.4-2.6-2.1c-0.8-0.7-1.6-1.3-2.5-2c-0.8-0.7-1.6-1.5-2.6-2.3c-0.7,0.5-2-1-3.5-1.5
						c-1.2-1.5-2.4-3.1-3.7-4.7c-1.3-1.6-2.5-3.4-4-5.1c-2.3-2.2-1.1-0.3-2.4-1.1c0.5-0.7-2.4-4.2-0.5-2.7c-1.8-2.1-2.8-3.5-3.9-5
						c-0.6-0.7-1.2-1.5-2-2.4c-0.7-0.9-1.6-2-2.6-3.4c0.1,0.8,0.5,1.6,0,1.4c-0.8-1-1.3-2.6-0.9-2.6l0.2,0.2
						c-2.5-3-4.3-7.2-5.7-11.2c-0.8-2-1.4-4-2.1-5.8c-0.4-0.9-0.7-1.7-1.2-2.5c-0.4-0.8-0.8-1.5-1.3-2.1l0.2,0.3l-1.6-2.8l-0.8-1.4
						l-0.7-1.4c-0.8-2.8,1.1,1.5,0.9-0.7c-0.8-1.5-1.5-2.9-2-4.2c-0.4-1.4-0.8-2.6-1.1-3.9c-0.7-2.5-1-4.8-2.1-7.5
						c0.2-0.6,0.2-1.3,0.2-2c0-0.7,0-1.6-0.1-2.4c-0.1-0.9-0.2-1.8-0.4-2.7c-0.2-0.9-0.4-1.9-0.5-2.9c-0.3-2-0.7-4-0.9-6
						c-0.1-1.9-0.2-3.7,0.1-5.2l-0.5,0.4c-0.6-1.5,0.1-1.8,0.3-3c-0.4,0.2-0.4,1.7-0.8,0.7c-0.2-3.2-0.5-6.5-0.2-9.8
						c0.1-1.7,0.1-3.3,0.3-5c0.2-1.7,0.4-3.3,0.6-5c0.1-0.8,0.2-1.7,0.4-2.5l0.5-2.5c0.3-1.6,0.6-3.3,1-4.9c0.4-1.6,0.8-3.2,1.1-4.8
						c0.4-1.6,0.9-3.2,1.3-4.8c0.6-2.3,0.2-3.1-0.2-4.1c-0.3-1-0.4-2,1-4.8l0.5,1.9c0.1-0.6,0.2-1.2,0.3-1.8l0.4-1.8
						c0.3-1.2,0.7-2.4,1-3.5c0.7-2.4,1.7-4.6,2.6-6.9c1-2.3,2-4.5,3-6.7c1.1-2.2,2-4.4,3-6.6c-0.1,0.6,0.2,0.8-0.3,1.6
						c1.6-1.4,3.7-6.4,3.2-6.8c0.9-1.2,0.6,0,1.4-0.6c1.5-1.4,1.9-4.8,3.2-5.2c0.2-0.1-0.1,0.6-0.3,0.9c0.5-1.3,3.6-4.9,2.2-4.4
						c1.2-1.4,2.2-2.7,3.1-4.1c1-1.3,1.8-2.6,2.9-3.5c0.5-2,4.3-4.4,3.8-5.6c0.8,1.1,5.1-3.8,6.3-5.8c-0.3,0.8,1.7-1.1,1.5,0
						c1.8-1.8,3.5-3.5,2.7-3.7c2.3-0.9,3.9-2.8,5.4-4.3c1.5-1.5,2.8-2.9,4.6-2.8c5.7-5.2,11.6-9.2,17.6-12.8
						c0.1,0.3-0.3,0.7-0.9,1.1c-0.6,0.4-1.4,0.9-2.2,1.4c-1.6,1-3.1,1.9-2.6,2.4c1.3-0.9,2.5-1.8,3.6-2.7c1.1-0.8,2.2-1.5,3.3-2.3
						c2.1-1.5,4.4-2.7,7.5-3.9c1.6-0.5-0.6,0.9-1.1,1.4c2.8-1.7,5.9-2.7,8.7-3.8c1.5-0.5,2.9-1,4.3-1.5c0.7-0.3,1.4-0.5,2.1-0.8
						c0.7-0.3,1.4-0.5,2.1-0.8c0,0.1-0.5,0.4-1.1,0.7c1.1-0.4,2.6-0.5,2.3-1.1l-1,0.5c-2-0.3,3.9-3.1,4-3.6c-1.5,2.2,5.8-0.9,3.3,2
						c0.7-0.3,1.6-0.8,1.3-1.1c1.1-0.1,1.5,0,0.5,0.7c1-0.3,1.6-0.6,2.1-0.8c0.5-0.2,0.8-0.4,1-0.5c0.6-0.3,1.1-0.6,3-0.9
						c0,0.3-0.7,0.5-1,1c1.8-0.9,3.5-1.9,6.7-2c-0.2,0.2,0.2,0.4-0.7,0.5c2.7-0.4,4.9-1.1,7.3-1.5c1.2-0.2,2.4-0.5,3.7-0.6
						c1.3-0.2,2.7-0.1,4.2,0c-1.7,1.3,2.1,0.4,2.4,1.5c1.1-0.2,2.1-0.2,3.2-0.3l-1.3-0.6c2.8,0.1,5.3-0.7,7.8-0.2
						c-0.7,0.1-1.4,0.2-2.1,0.4c1.8,0,3.5,0.1,5.3,0.1l-3-0.7c2.9-0.4-0.2-1.4,3.5-0.8c-0.8,0.1,2.9,0.2,4.2,1.1l0,0
						c1.4-0.2,2.9-0.4,5,0.2c0.5,0.4-0.6,1.2-0.3,1.4c0.8-0.4,2.4-0.1,4.1,0.1c1.7,0.2,3.4,0.4,4.4,0.2c-0.6,0.1-0.8,0.7-0.6,0.8
						l1.3-0.5c1.2,0.5,1.4,0.7,1.1,1.1c3.8,1-0.9-1.7,3.5,0c-0.4,0-0.2,0.1-1,0.1c4.5,1.4,8.9,1.9,12.9,3.7c0.8,1.5-3.7-0.9-2.6,0.4
						c5.9,1.7,12.5,3.3,17.9,6.1l-0.9-0.6c1.4-1,3.7,2.7,6.7,3.5c-0.7-0.3-1.3,0.3-1,0.2c1.7,1.1,3.6,2.1,5.7,3.1
						c1.1,0.5,2.2,1.1,3.4,1.7c1.2,0.6,2.5,1.2,3.9,2.1l-0.9-0.1c1.8,1.7,5.1,3.8,7,5.6c0.9,0.2,2,1.1,1.7,0.1
						c0.6,0.9,1.3,1.6,2,2.3c0.7,0.7,1.4,1.4,2.1,2.1c1.4,1.3,3,2.4,4.5,3.6c1.5,1.2,3,2.3,4.3,3.6c1.3,1.3,2.4,2.7,3.3,4.3
						c-0.6-0.6-1.7-1.2-1.2-0.7c1.5,1.4,2.9,2.9,4.3,4.3c0.2-0.8-0.2-0.9-0.6-2.2c0.8,0.3,2.2,1.4,3.2,2.6c-2.2-1.8-0.8,0.7-0.4,1.9
						c0-0.3,0.5-0.1,0.6-0.3c1,3.3,1.4-0.4,3.5,3.5l-0.4,0c1.2,1.2,2.4,2.2,3.4,3.7c-0.2,1.1-1.3-1.2-1.9-0.9c1.5,2,4.1,3.1,4.7,5.5
						c-0.8-0.8-1.6-2.1-2.4-2.8c0.3,1.3,0.6,1.9,0.8,2.5c0.3,0.5,0.6,1,1,1.8l-0.1-0.2c0.6,1.3,1.3,2.5,1.9,3.8
						c-0.1-0.4-0.2-0.7-0.3-1c1.7,0.8,2.6,2.1,3.4,3.6c0.4,0.7,0.9,1.5,1.4,2.3c0.5,0.8,1.1,1.6,1.9,2.4c-3-3-1-0.3-1.9-0.1
						c0.3,1.1,0.7,2.6,0.3,2.3c0.8,0.7,1,1.5,1.3,2.4c0.3,0.9,0.6,1.8,1.7,2.9c-0.2,0.2,0.8,1.9,0,1.8c1.3,2.2,0.2-0.7,0.6-0.7
						c1.3,1.6,1.8,3.9,2.5,6.3c0.2,0.6,0.4,1.2,0.6,1.9c0.2,0.6,0.4,1.3,0.6,1.9c0.4,1.3,1,2.6,1.8,3.8c1,2.2,1.7,3.6,2.5,4.8
						c0.4,0.6,0.7,1.3,1.1,2c0.4,0.7,0.7,1.6,1.1,2.7c-0.1,1.6-1.3-1-1.3-1c0.1,2.5,0.7,4.3,1.4,6.6c-0.3-0.4-0.5,0.1-0.7,0.9
						c0.4,1.8,1.3,1,1.3,3.6c-0.4-0.4-1-0.8-1.5-1.6c0.3,1.1,0.7,2.1,1.1,3.2c0.3,1.1,0.7,2.1,1,3.3c-0.4,0.7-0.9-1.3-1.4-2
						c0.5,2.5,1.3,6.5,2.1,7.2l0.2-1.7c0.1,0.9-0.6,0.5-0.9-0.1c-0.9-2.1-0.1-3.2,0.2-3.3l0.4,1.6c0.7-0.9,0.5-2.6,0-4.4
						c-0.5-1.8-1.4-3.7-1.6-5.4l1.5,1.1l-1.6-3.1c0.2-0.8,0.8-1.4,1.3,0.2c0.1-2.5-0.9-2-0.7-4.1c0.1-0.2,0.1-0.2,0.2,0l-0.9-2.2
						c0.4,0.4,0.8-0.6,0.9,0.9c-0.1-1.1-0.2-2-0.5-2.8c-0.3-0.8-0.6-1.5-0.9-2.2c-0.6-1.3-1-2.2-0.8-3.1l0.2,0.3
						c-0.5-1.4-0.8-2.1-1.1-2.4c-0.2-0.3-0.4-0.3-0.5-0.3c-0.3,0.1-0.6,0.5-1.8-1.4l1.2-3.5l-1-0.2c-0.2-0.6-0.6-1.7-0.1-1.6
						c-1.4-1.9-0.2,0.5-1.3-0.5c-0.1-1.5-0.9-3.3-1.6-4.9c-0.7-1.5-1.3-2.9-0.7-3.5c-1.1-0.7,0.6,2.7-1.1,0.1
						c0.5-0.7,0.1-1.5-0.5-2.5c-0.6-0.9-1.5-2-1.8-3.3c1.1,0.3,1.9,2.8,1.3,0.1c-1-0.4-1.5-1.6-1.9-2.9c-0.4-1.3-0.9-2.7-1.6-3.6
						c-0.5,0.2-1.2-0.8-2.1-2.2c-0.9-1.4-2-3.2-3.1-4.7c0.5,0-3.4-6.2-5.3-9.2l0.2,0c-0.6,0.1-1.5-0.6-2.4-1.6
						c-0.9-1-1.9-2.2-2.8-3.1c0.6-0.3,1.1-0.2,2.2,0.7c-0.5-0.6-1.1-1.3-1.6-1.9c-0.7-0.2-1.3-0.7-2.4-1.8l1-0.1
						c-0.6-0.6-1.1-1.2-1.8-1.8c-0.6-0.5-1.3-1.1-2-1.7c-0.7-0.6-1.4-1.2-2-1.9c-0.3-0.3-0.7-0.7-1-1.1c-0.3-0.4-0.7-0.8-1-1.2
						c-0.7,0.4,0.9,3.8-2.6,1.1c0.2-0.4,0.5-1,1.5-0.4c-0.3-0.2-1.2-0.7-1.7-1.3l1.8,0.7c-1.2-1.5-1.1-0.3-2.2-1.4
						c0.4-0.4-0.5-1.1-0.1-1.3c0.3,0.2,0.8,1.1,1.4,1.3c-1.2-1.3-2.5-3-2.7-3.7c-0.1,0.4-0.5,0.6-1.5-0.2c-2.5-2.1-0.4-1.3-1.6-2.8
						c-0.8-0.2-2.2-1.9-2.8-1.2c-0.8-0.6-0.6-1-0.8-1.4c-0.8-0.4-2.4-1.6-3.7-2.4c-1.3-0.8-2.3-1.3-1.8-0.4l0.3,0.3
						c-0.1,0-0.2-0.1-0.2-0.1c0,0,0,0,0,0l0,0c-1.3-0.6-2.5-1.4-3.6-2.2c-1.2-0.8-2.4-1.6-3.5-2.5c-2.3-1.8-4.7-3.4-7.2-4.6l0.2-0.3
						c-1.5-0.7-3.2-1.4-4.7-2.2c-1.6-0.7-3-1.3-4.2-1.5c-0.9-0.4-1.9-1.4-1.3-1.6c-2.4-0.8-2.7-0.7-5.9-2.5c2.6,0.5-0.6-0.7,2.6,0.6
						c-3-1.4-3.5-2.2-7.1-2.7c1.4-0.3-2-1.7-3.6-2l2,1.3c-1.7-0.5-3.1-1-4.6-1.6l1.1-0.7c-1.5-0.8-3.1-1.2-4.6-1.6
						c-1.5-0.3-3-0.5-4.4-0.6c-1.4-0.1-2.8-0.2-4.1-0.5c-0.7-0.1-1.3-0.4-1.9-0.6c-0.6-0.2-1.2-0.5-1.8-0.9
						c-1.9,0.4,3.5,1.1,1.8,1.6c-3-0.7-5.9-2.7-6.9-2.8c-2.1-0.5-3.1-0.3-4.2-0.1c-0.5,0.1-1.1,0.3-1.7,0.3c-0.7,0-1.5,0-2.6-0.2
						c0.5,0.4,1,1.4-2.3,1.5c-3-0.4-3.7-1.8-1.7-1.9c0.7,0,1.1,0.2,1.1,0.3c1-0.1,2.3-0.1,1.1-0.6l-0.4,0.3
						c-0.8-0.2-2.2-0.4-3.3-0.6c-1.1-0.2-1.9-0.3-1.4-0.6c-2.4,0.3-1,0.6,0.7,0.8c-2-0.3-3.5-0.4-5.1-0.4c-1.6-0.1-3.2,0-5.2-0.1
						c0.7,0.2,1.3,0.6,0.6,0.6c-3-0.1-3.7,0-4.1,0.3c-0.4,0.2-0.6,0.6-2.6,0.8c-2.3-0.4,0.7-1.4-3.3-0.6c-2.5-0.2-0.6-0.9,0.4-1.3
						c-0.9,0.2-1.8,0.4-2.7,0.4c-0.9,0.1-1.7,0.1-2.5,0.1c-1.6,0-3-0.2-4-0.1l1.9-0.5c-1.2,0.3-2.1,0.4-3.1,0.6
						c0.4,0.2,0.8,0.4,1.2,0.5c-1.2,0-2.1,0.2-2.2-0.1c-1.1,0.7,1.1,1-1.1,2.1c-1.6-0.1-4.5,1.2-5.2,0.4c4.8-0.6-0.7-0.9,3.3-1.7
						c-0.8,0.3-1.7,0.4-2.9,0.5c-0.2-0.1,0.1-0.2,0.4-0.3c-4.8,0.2-1.9,1.5-6.6,2.6c0.5-0.7-1.3-0.7-2.1-0.4
						c1.9-0.5,1.1,0.6-0.5,1.5c-3.1,0.4-3.1,1.2-4.7,1.6l1.8-0.3c-0.2,0.3-0.7,0.6-1.4,0.9c-0.7,0.3-1.5,0.6-2.5,1
						c-0.3-0.3,1.8-0.9,1-0.8c-1.9,1.7-5.4,0.7-8.3,2.6c-1.6,0.2-0.5-0.9-1.9-0.6c-3.2,2-4,0.9-7.4,3c1.3,0.2,1.4-0.1-0.8,1.7
						l5.7-3.1l-3.3,2.7c1.8-0.8,3.5-2.1,4.7-2.4c-1.6,1.3-1.5,1.1-0.4,1.2c-1.4,0-2.6,0.7-3.7,1.5c-1.2,0.8-2.4,1.5-3.9,1.9
						l-0.7-1.6c-2.2,0.7-4,1.8-5.8,3.1c-0.9,0.7-1.8,1.4-2.9,2.1c-1,0.7-2.2,1.4-3.5,2.1c0.6-0.3,1.2-0.5,1.8-0.8
						c-0.3,1-3.1,2.1-4.6,3.3c-0.2-0.6-1.3-0.1-2.2,0c0.3,0.3-3.6,2.5-3.4,3.8c-0.9,0.3-1.8,0.6-2.6,1c-4,2.8-3.3,4.7-6.9,7.6
						c0.6-1.4-1.2-0.3,0.8-2.7c-1.2,1-2.3,1.9-2.1,2.2c-0.5,0.2-1.2,1-1.9,1.9c-0.7,0.9-1.5,1.9-2.2,2.1c-0.3,0.6,0,1.2-1.3,2.4
						c-0.2,0-0.2-0.2-0.2-0.2c0.2,0.2-1.6,2.2-0.1,1.6c-1.1,0.5-2.3,1.4-3.4,2.5c-0.6,0.5-1.1,1.1-1.7,1.7c-0.5,0.6-1.1,1.2-1.6,1.9
						c-1,1.3-2.1,2.5-3.1,3.6c-1,1.1-1.9,2-2.9,2.6c-0.5,0.7-1,1.4-1.5,2.2c-0.5,0.7-1,1.5-1.5,2.3c-1,1.5-2,3-2.8,4.3
						c0-0.3-0.2-0.2,0.1-0.6c-2.7,3.3,0,3.1-3.1,6.8c-1,0.8-0.8,0.2-0.5-0.5c0.3-0.7,0.8-1.4,0.3-0.8c-1-0.2-1.7,1.1-2.4,2.7
						c-0.7,1.6-1.6,3.6-2.8,4.8l0.3-0.8c-1.7,1.9-2.2,5.7-3.9,9.4c0,0-0.1-0.3-0.3-0.1c-0.1,1.5-0.7,3.4-1.2,5.5
						c-0.5,2.1-1.3,4.2-1.7,6.1c-0.3-1.4,0.2-1.8-0.8-1.4c-0.5,1.7,1.3-0.1,0.4,3.3c-0.7,0.9-1.9,3.2-2.8,3.3c0.3-1.1,0.7-2.1,1-3.1
						c-0.8,0.6-1.1,1.6-1.3,2.7c-0.2,1.1-0.3,2.2-0.6,3l-0.4-0.3c-1.3,4.9,0,5.3-1.4,10.5l0.5-0.5c0.5,3.1-1.1,2.3-0.8,5.4l-1.3,0.7
						c0,0.5,0,1.2,0,2c0,0.8,0,1.7,0.1,2.7c0.1,1.9,0,4,0,5.8c-0.4-1-0.5-2.6-0.6-4.2c-0.1-1.6-0.1-3.3-0.2-4.6
						c-0.3,1.9-0.8,6.6-0.3,7.6c0-0.8-0.2-1.8,0.1-2.5c0.6,2.5,0.9,5.6,0.5,9.4c-1.2-0.4-1.4,2.1-1.5,5.1c-0.2,3-0.1,6.3-0.9,7.8
						c0.1,0.9,0.2,1.7,0.3,2.6c0.1,0.9,0.2,1.7,0.3,2.6c0.2,1.7,0.2,3.5,0.3,5.2c0.1,1.8,0.3,3.6,0.4,5.5c0.1,0.9,0.2,1.9,0.3,2.8
						c0.2,1,0.3,1.9,0.5,2.9c1.3-3.1,0.5,2.3,2.2,1.5c0.4,1.8,0.6,2.5,0.5,2.7c0.1,1.9,0.1,3.8,0.2,5.7c-0.1,0.7-0.3,0.3-0.5-0.2
						c-0.2-0.6-0.5-1.3-0.6-1.1c0.4,2,0.4,2.5,0.2,2.8c-0.2,0.3-0.4,0.5-0.3,1.8c0.5-0.7,1.3,1.1,1.7,3.4l-0.1-3.4
						c0.6,1.3,0.9,2.3,1.1,3.1c0.2,0.8,0.2,1.4,0.2,2.1c0,1.3,0.1,2.6,1.5,5.2l-1.1-1.5c1.2,2.7,4,10.3,6.6,12.3
						c0,0.6-0.1,1.4-0.8,0.3c0.3,0.8,0.7,1.7,1.1,2.5c0.4,0.8,0.9,1.6,1.4,2.5c1,1.6,2,3.3,3.1,4.8c1.1,1.5,2.1,3.1,3,4.5
						c0.9,1.4,1.7,2.8,2.3,4l-0.7-0.2c0.8,1,1.9,1.5,2.5,3.1c-0.2,0-0.7-0.2-0.3,0.3c0.5,0.5,2.7,2.4,3.5,4l-1.3-0.9
						c0.9,1.5,1.8,2.7,2.8,3.8c0.9,1.1,1.9,2,2.8,2.8c2,1.6,3.9,3.1,5.9,5.1c-0.5,0.4,0.1,1.7,1.1,3.1c1,1.4,2.2,3,3.2,4l-0.2,0.1
						c1.4,1.4,2.8,2.7,4.2,3.8c1.4,1.1,2.8,2.1,4.2,3c1.4,1,2.8,1.8,4.3,2.7c1.5,0.9,2.9,1.9,4.5,2.8c0.7,1,1.9,2,3.3,3.2
						c1.4,1.1,3.1,2.3,4.9,3.4c1.8,1.2,3.7,2.3,5.5,3.4c1.8,1.2,3.6,2.2,5.2,3.2c-0.9-0.7,0.6-0.8,1.9-0.4c1.4,1.1,4.7,1.2,4,2.2
						l-0.6-0.3c0.7,1.6,4.1,2.9,6.7,3.9l1-1.3c1.5,1.2,3.4,2.2,5.4,3c2.1,0.7,4.3,1.5,6.4,1.9c2.1,0.5,4.2,1,5.9,1.4
						c1.7,0.4,3.1,0.9,4,1.7c1.8,0,4,0.4,5.7,0.3l-0.2,0.8c2.4,0.5,4.2,1,6.2,1.2c1,0.1,2,0.3,3.2,0.4c0.6,0.1,1.2,0.1,1.8,0.2
						c0.7,0,1.4,0.1,2.1,0.1l-1.3,0.5c3.4,0.3,4.5-2.1,7.6-2l0.9,1.3c3,0.1,6,0.5,8.9,0.5c1.5,0,3,0,4.5-0.1
						c1.5-0.2,2.9-0.4,4.4-0.8c-0.1,0.2-0.2,0.6-1.2,0.7c2.8,0,10.9-0.3,9.7-1.9c0.2,1.2,6.1-0.9,9.1-2l-0.3,0.9
						c2.4-1.7,2.4-2,6-3.1c0.9-0.1,0.9,0.5-0.3,0.5c3-0.3,2-1.4,5.6-1.9l-1.1,0.9c3-0.8,2.7-0.9,4.1-2.1c1.7-0.9,5.5-1.6,6.2-1.1
						c0.2-0.6,1.6-1.8,3.3-2.2c0.3,0.2-0.2,0.6-0.5,0.8c1.2-0.3,2.3-0.7,3.2-1.2c0.9-0.4,1.7-0.9,2.4-1.4c1.5-0.9,2.7-1.6,4.5-2
						c0.2,0.2,0.5,0.2,0.7,0.2c-3.7,1.7-6.7,3-6.4,2.8c0.3,0.7,3.4-0.5,1.4,1.5c1.1-0.8,2.6-2,4.1-3.1c1.5-1.1,3.1-2.2,4.6-2.8
						c0.2,0,0.3,0,0.5,0l-0.3,0.2c0.7-0.3,1.3-0.6,1.7-1c0.9-0.4,1.6-0.6,2.4-1.1c0.6,0.3,3.5-1.5,4.9-2.4c-0.6-0.6,1.3-1.7-0.7-1.2
						c0.2-0.1-0.2,0.3-1.1,0.9c-0.2,0.1-0.4,0.3-0.6,0.4c0,0,0-0.1,0.1-0.1c-0.9,0.5-2.1,1.3-3.5,2.1c0.9-1,1.9-2,3.7-2.5
						c0.4-0.9,0.9-1.9,1.2-2.4c1.2-0.1,2.9-0.6,4.3-1c1.4-0.4,2.6-0.9,3.1-0.8c1-0.8,2-1.7,3.1-2.5c1.1-0.9,2.1-1.8,3.1-2.7
						c1-0.9,1.9-1.8,2.7-2.7c0.7-0.9,1.3-1.8,1.6-2.6c0.9-1.1,1.5-0.7,2.1-0.9c-0.5,0.7-1.3,1.3-1.5,1.7c0.5-0.5,1.1-1.2,1.8-1.8
						c0.3-0.3,0.7-0.7,1-1c0.3-0.3,0.7-0.7,1-1c1.2-1.4,2.2-2.6,2.1-3.2c2.9-2.1-0.7,2.1,2.6-1.4l-0.2,0.7c2-1.4,3.5-3,4.9-4.6
						c1.3-1.7,2.3-3.4,3.4-5.2c1-1.8,2-3.6,3.3-5.4c1.3-1.8,2.7-3.7,4.8-5.5c-0.5,0.5-0.8,0.8-1,0.8c0.5-0.6,1-1.2,1.4-1.8
						c0.4-0.6,0.9-1.3,1.3-1.9c0.9-1.3,1.7-2.6,2.5-3.9c0.8-1.4,1.5-2.7,2.3-4.1c0.4-0.7,0.8-1.4,1.1-2.1l1-2.1
						c0.7-1.4,1.4-2.8,2-4.2c0.6-1.4,1.3-2.8,1.9-4.2c0.3-0.7,0.7-1.4,1-2.1c0.3-0.7,0.6-1.4,1-2.1c0.7-1.4,1.3-2.7,2.1-4.1
						c1.4-3.1,0.9-3.7,1-5.9l1.1-0.4c0-1.2,0-2.5,0-3.7c0.2-1.3,0.5-2.4,1-3.4c0.4-1.1,0.9-2.1,1.4-3.2c0.5-1.1,1-2.2,1.3-3.5
						c0.3-1.3,0.5-2.7,0.4-4.4l-0.7,0.7c0.2-1.1,0.5-2.9,0.7-4.4c0.2-1.5,0.4-2.6,0.7-2.4c-0.1-0.2-0.5-0.8-0.1-1.7l0.5,0
						c0-0.9,0-1.9-0.1-2.8l-0.2-2.8c0.3-2.2,0.8-2,1.2-2c0.2,0,0.4-0.1,0.6-0.6c0.2-0.5,0.4-1.4,0.5-3c-0.1-2.4-1.2-6.8-1.5-5.9
						c0,1-0.4,2.4-0.8,2.5l-0.2-2.1c-1.4-0.4-2.8-2-3.9,3.1l0.8,3.6l-0.8,1.1c0.1-1,0.1-2,0.1-3c-0.7,1.7-0.2,2.8,0.1,4
						c-0.4,0.3-0.7,0.7-0.9,1.4l1.1,3.6c-0.6,0.4-0.9-1.7-1.5,0.6c0.4,1.7,1.4-1.4,1.5,1.3c-0.8,1.6-1.3,1.1-1,3.1
						c-0.4,0.2-0.6-0.2-0.6-1c0.1,0.9,0,2.1-0.1,3.2c-0.1,1.1-0.2,2,0.1,2.6c-0.5,0.8-0.8,2.3-1,3.6c-0.3,1.2-0.6,2.2-1.2,2
						c0.2,0.6,0.3,3.3,0,4.9c-0.4-1.7-0.8-0.2-1.3,1.6c-0.5,1.7-1.1,3.7-1.9,3.1c0.4,1.3-0.1,3.2-0.7,5.3c-0.3,1.1-0.7,2.2-1,3.3
						c-0.4,1.1-0.7,2.1-0.8,3.1c0-0.2-0.1-0.7,0.1-1c-0.9,2-1.6,2.5-2.3,3.7c1,0.7-0.2,4-0.3,6c-2.1,2-0.6-2.1-1.9-1.8
						c0.5,0.1,0.2,1.3-0.1,2.4c-0.3,1.1-0.6,2,0,1.8c-1.6,1.5-1.1,1.4-2.5,1.9c1.1,1-0.6,1.8-0.7,3.8c-2.1,2.3-1.6,0-2.8,3.1
						C509,316.4,510,313.6,510,313.6z M455.7,368.6C455.7,368.6,455.7,368.6,455.7,368.6c0.6-0.3,1.1-0.6,1.4-0.8
						C456.8,368,456.4,368.2,455.7,368.6z M449.7,371.6c0.7-0.3,1.7-0.7,2.6-1.2c0.3,0.1,0.2,0.6-0.4,0.8
						C452.2,370.9,450.7,371.4,449.7,371.6z M465.1,370.1c-0.9,0.6-1.3,0.7-1.5,0.6c0.4-0.3,1-0.6,1.6-1c0,0,0.1-0.1,0.1-0.2
						C465.3,369.7,465.2,369.9,465.1,370.1z"/>
					<path class="st0" d="M466.2,368.2c0.1-0.1,0.2-0.2,0.4-0.3c-0.2,0.1-0.4,0.1-0.7,0.2c-0.1,0.1-0.1,0.3-0.2,0.4
						C465.9,368.4,466.1,368.3,466.2,368.2z"/>
					<path class="st0" d="M475.3,128.4l-0.1-0.1c0.1,0.1,0.1,0.2,0.2,0.3C475.3,128.4,475.4,128.4,475.3,128.4z"/>
					<polygon class="st0" points="360.4,379.1 360.4,379.3 361,379.2 					"/>
					<path class="st0" d="M500.3,155.8c0,0.1,0,0.3,0.1,0.5C500.5,156.3,500.4,156.1,500.3,155.8z"/>
					<path class="st0" d="M509.4,168.8l1,2C510,169.9,509.7,169.3,509.4,168.8z"/>
					<path class="st0" d="M515.2,179.5c0.2,0.1,0.3,0.1,0.4,0c0,0,0,0,0,0L515.2,179.5z"/>
					<path class="st0" d="M351,111.7c-0.2,0-0.3,0.1-0.4,0.2C349.6,112.4,350.3,112.1,351,111.7z"/>
					<path class="st0" d="M407.8,104.7c-0.6,0.1-1.2,0.1-1.9,0.2C406.9,105.1,407.7,105.2,407.8,104.7z"/>
					<path class="st0" d="M297.1,144.2C297.1,144.2,297.1,144.2,297.1,144.2c-0.1,0.1-0.2,0.2-0.3,0.3L297.1,144.2z"/>
					<path class="st0" d="M403.2,104.7c1,0.2,1.9,0.3,2.7,0.2C405,104.8,404.1,104.6,403.2,104.7z"/>
					<path class="st0" d="M530.1,229.7l0,0.6c0.1,0,0.1,0,0.1,0.1L530.1,229.7z"/>
					<path class="st0" d="M530.3,230.3l0.1,0.6C530.4,230.6,530.4,230.4,530.3,230.3z"/>
					<path class="st0" d="M530.7,232.3l-0.3-1.3C530.4,231.4,530.5,232,530.7,232.3z"/>
					<path class="st0" d="M527.8,213.8l-0.3-0.1C527.6,213.7,527.7,213.8,527.8,213.8z"/>
					<path class="st0" d="M526.6,209c0.3,1.1,0,3,0.6,4.5l0.3,0.1C526.9,213,527.4,210,526.6,209z"/>
					<path class="st0" d="M523.5,188.3c0.5,1.3,0.9,2.7,1.3,4c0-0.8,0.1-1.9,0.9-0.1C524.6,186.8,525.4,193.4,523.5,188.3z"/>
					<path class="st0" d="M518.3,176.3c1.2,1.9,0.4-0.2,0.6-0.2C517.9,174.9,517.7,174.7,518.3,176.3z"/>
					<path class="st0" d="M450.2,113.1l0.5-0.6C449.1,111.9,450.6,112.7,450.2,113.1z"/>
					<path class="st0" d="M432.1,110.5c0.5,0.3,1,0.6,1.4,0.9l1-0.4C433.7,110.9,432.9,110.7,432.1,110.5z"/>
					<polygon class="st0" points="423.3,102.6 424,102.7 421.1,102.3 					"/>
					<path class="st0" d="M279.3,152.4l1.1,0.2C281,151.6,280.4,150.7,279.3,152.4z"/>
					<path class="st0" d="M250.5,214.3c-0.7,0.6-1.3,2.5-1,3.7C249.8,216.5,250.4,215,250.5,214.3z"/>
					<path class="st0" d="M341,381.3l-1.4-0.2c0.9,0.2,1.7,0.5,2.6,0.7C341.8,381.6,341.4,381.4,341,381.3z"/>
				</g>
			</g>
		</g>
	</g>
</g>
<line class="st1" x1="294" y1="254.5" x2="594" y2="254.5"/>
<rect x="315.3" y="214.5" class="st2" width="225.9" height="121.8"/>
<text transform="matrix(1 0 0 1 315.2939 245.7656)" class="st3 st4 st5">welcome</text>
<g>
	<defs>
		<polygon id="SVGID_1_" points="501,214 534,214 534,46 233,46 233,402 526,397 534,264 500,261 		"/>
	</defs>
	<clipPath id="SVGID_2_">
		<use xlink:href="#SVGID_1_"  style="overflow:visible;"/>
	</clipPath>
	<g class="st6">
		<g>
			<path class="st7" d="M513.5,241.5c-0.3,49.7-31.7,95.7-78.7,112.7c-47.5,17.1-101.2,2.5-133.6-36.1
				c-32.4-38.6-36.4-95.5-10.5-138.5c25.8-42.9,77.4-65.8,126.6-55.8c48.6,9.9,86.6,49.6,94.7,98.5
				C513.1,228.7,513.5,235.1,513.5,241.5c0,7.7,12,7.7,12,0c-0.3-54.9-34.8-104.6-86.3-123.9c-51.8-19.3-112.3-3-147.4,39.7
				c-35.1,42.7-40.2,104.5-11.5,152.1c28.7,47.5,85.1,72.2,139.5,61.4c53-10.6,95.7-54.9,104-108.4c1.1-6.9,1.7-13.9,1.7-21
				C525.5,233.8,513.5,233.8,513.5,241.5z"/>
		</g>
	</g>
</g>
<rect x="312.3" y="214.5" class="st2" width="225.9" height="121.8"/>
<text transform="matrix(1 0 0 1 312.2939 245.7656)" class="st8 st4 st5">welcome</text>
<g>
	<g>
		<g>
			<g>
				<g>
					<path class="st9" d="M594,262.2c0.2-0.1,0.1-0.3-0.4-0.2l-0.3,0.3L594,262.2z"/>
					<path class="st9" d="M591.1,261.6c-0.5,0.2-1.1,0.4-0.8,0.7c0.5-0.3,0.6-0.2,1.2-0.6c0.4,0,0.8,0.1,0.7,0.2
						c0.2-0.1,0.7,0.1,0.9-0.1c-0.6-0.3-1.3-0.3-2-0.1C590.9,261.7,591,261.6,591.1,261.6z"/>
					<path class="st9" d="M548.5,261l0.3,0C548.7,261.1,548.6,261,548.5,261z"/>
					<path class="st9" d="M522.2,260.9c0.2,0,0.3,0,0.3-0.1C522.3,260.8,522.1,260.8,522.2,260.9z"/>
					<path class="st9" d="M517.7,260.5c0.1,0,0.2,0,0.3,0C517.8,260.5,517.7,260.5,517.7,260.5z"/>
					<path class="st9" d="M548.5,261l-0.7-0.1C547.8,261,548.2,261,548.5,261z"/>
					<path class="st9" d="M585.2,262.4c0.1,0,0.3,0,0.4-0.1C585.5,262.3,585.3,262.3,585.2,262.4
						C585.2,262.3,585.2,262.3,585.2,262.4z"/>
					<path class="st9" d="M560.1,260.8l0.2,0c0.1,0,0.1-0.1,0.2-0.1L560.1,260.8z"/>
					<path class="st9" d="M569.1,260.7c-0.2,0-0.3,0.3-0.3,0.4c0.1-0.1,0.3-0.2,0.4-0.2C569.2,260.9,569.1,260.8,569.1,260.7z"/>
					<path class="st9" d="M583.2,261.2l0.3,0C583.4,261.2,583.3,261.2,583.2,261.2z"/>
					<path class="st9" d="M553.8,260.7c0,0,0-0.1-0.1-0.1C553.7,260.6,553.7,260.7,553.8,260.7z"/>
					<path class="st9" d="M304.3,262.8C304.3,262.8,304.3,262.8,304.3,262.8C304.3,262.8,304.3,262.8,304.3,262.8z"/>
					<path class="st9" d="M294,261.4l0.1,0c0-0.1,0-0.1,0-0.2L294,261.4z"/>
					<path class="st9" d="M509.4,260.1C509.4,260.1,509.5,260.1,509.4,260.1C509.7,260.1,509.6,260.1,509.4,260.1z"/>
					<path class="st9" d="M433.8,260.3c0.9,0.3-1.4,0.3-0.1,0.6C433.6,260.8,434.9,260.5,433.8,260.3z"/>
					<path class="st9" d="M585,262.3c-0.1,0-0.2,0-0.4,0C584.8,262.3,584.9,262.3,585,262.3z"/>
					<path class="st9" d="M433.7,260.9C433.7,260.9,433.7,260.9,433.7,260.9l0.1,0C433.8,261,433.8,260.9,433.7,260.9z"/>
					<path class="st9" d="M490.5,260.3c0,0,0.1,0.1,0.2,0.1C490.6,260.4,490.6,260.4,490.5,260.3z"/>
					<path class="st9" d="M504.6,260.7l-0.3,0C504.4,260.7,504.5,260.7,504.6,260.7z"/>
					<path class="st9" d="M483.1,260.7c-0.2,0-0.3-0.1-0.5,0c0,0,0,0,0.1,0C482.8,260.7,482.9,260.7,483.1,260.7z"/>
					<path class="st9" d="M475.5,260.7c0,0,0.1,0,0.1,0.1c0.1,0,0.2,0,0.2,0L475.5,260.7z"/>
					<path class="st9" d="M327.6,262.7c-0.2-0.1-0.3-0.2-0.4-0.3C327.3,262.6,326.2,262.7,327.6,262.7z"/>
					<path class="st9" d="M585.2,262.2c0,0.1-0.1,0.1-0.2,0.1c0.1,0,0.2,0,0.3,0C585.3,262.3,585.3,262.2,585.2,262.2z"/>
					<path class="st9" d="M482.8,262.9l-1.2,0C481.9,262.9,482.4,262.9,482.8,262.9z"/>
					<path class="st9" d="M382.4,262.6l-0.3,0C382.2,262.7,382.3,262.7,382.4,262.6z"/>
					<path class="st9" d="M478,262.9c-0.2-0.1-0.4-0.2-0.7-0.2c-0.1,0-0.1,0-0.1,0.1L478,262.9z"/>
					<path class="st9" d="M327.2,262.4C327.2,262.4,327.2,262.4,327.2,262.4C327.2,262.4,327.2,262.4,327.2,262.4z"/>
					<path class="st9" d="M319.2,263.1c1.2,0,0.5-0.4,0.8-0.6c1.4-0.1,0.6,0.3,1.1,0.5c0.9-0.1,1.5-0.4,2.2-0.4c0,0.1,0.2,0.1,0,0.2
						c0.9-0.3,2.7,0,3.8-0.4c0.1,0,0.1,0.1,0.1,0.1c-0.2-0.2-0.2-0.4-0.2-0.5c0.5,0,1-0.2,1.2,0c-0.3,0-0.3,0.1-0.5,0.2l0.5-0.1
						c0.5,0.3-0.7,0.1-0.7,0.4c1.1-0.1,2.3-0.4,3.1-0.3c0.2,0.3-1.9,0.1-0.8,0.4l-1.3-0.1c1,0.5-0.8,0,0.1,0.5
						c1.7,0.1,1.8-0.2,3.5-0.1c0.4-0.2-0.1-0.3,0.2-0.5c2.3-0.3,1.8,0.9,3.6,0.4c0.4-0.2,0.6-0.7,1.8-0.4l-0.4,0.4
						c1.6,0,0.9-0.6,2.6-0.3c-0.3,0.2-1.3,0.1-1,0.2c1.1,0.3,0.8-0.2,1.6-0.2l0.2,0.3c1.7-0.1,3.6-0.3,5.5-0.4
						c-0.1,0.1-0.4,0.2,0,0.3c2.4-0.2,5.1,0,7.4,0.2l0.9-0.3c0.2,0,0.4,0.1,0.2,0.2c0.9,0.1,0-0.2,0.5-0.3c0.5,0,0.7,0.2,0.3,0.3
						c1.6-0.2,4.5-0.5,6.2-0.2l-0.3,0.1c1.3,0.1,1.5-0.6,2.7-0.3l-0.2,0.1c2.8,0.1,5.9-0.1,8.1,0.3c0.4-0.4,2.8,0.2,3-0.4
						c1.6,0.3,1.1,0.4,3.4,0.6c0.6,0,0.9-0.4,1.6-0.4l0,0.3l1-0.3l0.5,0.4l0.7-0.1c-0.3,0-0.6-0.1-0.6-0.2c1.1-0.1,2.7,0.2,2.7,0.4
						l2.6-0.3c-0.1,0.1-0.5,0.2-0.8,0.2c1.4-0.3,0.3,0.3,1.5,0c-0.2-0.1,0.1-0.2,0.1-0.2c0.6,0.2,2.1,0.2,3.1,0.1l-0.2,0.2
						c1.9,0.1,4-0.1,6.2-0.1c-0.8-0.1-0.6-0.5,0-0.5l0.3,0.3c0.4-0.2-0.7-0.1,0.2-0.4c0.8,0,0.5,0.4,0.1,0.5l1-0.1
						c0.1,0.1-0.2,0.1-0.2,0.3c0.4-0.2,1.7,0.3,2.3,0l0.1,0.1c2.2,0,3.1-0.1,4.9-0.1c0-0.3,0.7-0.2,1.2-0.4c1.3,0.1,2.7,0.3,4.3,0.3
						c1.1-0.1,0.3-0.2,0.8-0.4c0.1,0.3,1.6,0.2,0.8,0.4c1.9,0,2.4-0.1,4.7-0.3c-0.3-0.1-0.5-0.2-0.4-0.2c0.4,0,1,0.1,0.9,0.2l-0.1,0
						c2.6-0.4,6.1,0.7,8.2,0.2l-0.1,0l2.2-0.3c1,0-0.6,0.2,0.1,0.4c2.4-0.4,3.7,0.1,5.7-0.2c1.5,0.8,5.3-0.1,7.4,0.4l-0.1-0.2
						c0.5-0.2,0.6,0.1,1,0.1c-0.1-0.1-0.6-0.2-0.2-0.3c4.4-0.2,9.2,0.3,13.7,0.4c1.7,0,0.9-0.9,3-0.5l-0.6,0.3
						c3.4-0.4,6.9,0,10.2-0.3c-0.2,0.1-0.2,0.2-0.5,0.2c0.7,0.2,2.6,0,2.6-0.2c0.5,0,0.1,0.2,0.4,0.3c0.7,0.1,1.7-0.3,2.1-0.1
						c0.1,0-0.2,0.1-0.3,0.1c0.5-0.1,2.1,0,1.7-0.2c1.2,0.1,2.4-0.1,3.3,0c0.6-0.3,2.1,0.1,2.3-0.3c-0.1,0.5,2.2,0.4,2.9,0.2
						c-0.3,0.1,0.7,0.1,0.4,0.3c0.9,0,1.7-0.1,1.6-0.3c1.6,0.5,3.3-0.4,4.2,0.3c2.6-0.2,5.1-0.4,7.5-0.5c-0.1,0.5-2.6,0-2.5,0.5
						c2.3-0.2,3.6-0.6,5.8-0.5c0.6,0.1-0.3,0.2-0.5,0.3c2.3-0.2,4.4,0,6.4-0.2c0,0-0.2,0.1-0.4,0.1c0.4,0,0.9,0.1,0.9-0.1l-0.4,0.1
						c-0.6-0.3,1.6-0.6,1.6-0.8c-0.7,0.6,2,0.1,0.9,0.9c0.3,0,0.6-0.1,0.5-0.3c0.4,0,0.5,0.1,0.1,0.3c1.4-0.1,0.9-0.3,2.2-0.3
						c0,0.1-0.3,0.1-0.4,0.3c0.7-0.2,1.3-0.4,2.4-0.3c-0.1,0.1,0.1,0.1-0.3,0.1c1.9,0,3.2-0.5,5.2-0.3c-0.6,0.4,0.7,0.1,0.8,0.5
						l1.1-0.1l-0.4-0.2c1,0,1.8-0.3,2.6-0.1l-0.7,0.2l1.8-0.1l-1-0.1c1-0.2-0.1-0.5,1.2-0.4c-0.3,0,1,0,1.5,0.2c0,0,0,0,0,0
						c0.5-0.1,1-0.2,1.7-0.2c0.2,0.1-0.1,0.4,0,0.5c0.5-0.3,2.3-0.1,2.9-0.4c-0.2,0.1-0.2,0.3-0.1,0.3l0.4-0.3
						c0.4,0.1,0.5,0.1,0.4,0.3c1.3,0-0.4-0.5,1.2-0.3c-0.1,0-0.1,0.1-0.3,0.1c1.6,0.1,3.1-0.2,4.6,0c0.4,0.4-1.3,0.1-0.8,0.4
						c2.1-0.1,4.4-0.5,6.4-0.4l-0.4,0c0.3-0.5,1.5,0.3,2.6,0c-0.3,0-0.3,0.3-0.3,0.2c1.4,0.1,2.9-0.1,5-0.3l-0.3,0.1
						c0.8,0.1,2.2,0.1,3.1,0.1c0.3-0.1,0.8-0.1,0.5-0.3c2.8,0.8,5.3-0.4,7.7,0.2c-0.3,0-0.7,0.1-0.5,0.1l2.1-0.1
						c-0.2-0.2-0.3-0.1-0.7-0.3c0.3-0.1,0.9-0.2,1.4-0.2c-0.9,0.2,0,0.4,0.4,0.5c-0.1-0.1,0.1-0.1,0-0.2c1.1,0.4,0.2-0.5,1.7-0.2
						l-0.1,0.1c0.6-0.1,1.1-0.2,1.7-0.2c0.2,0.3-0.6,0.1-0.6,0.3c0.8,0,1.7-0.5,2.4-0.2c-0.4,0.1-0.9,0.1-1.2,0.1
						c0.8,0.3,0.9,0.2,1.5,0.3l-0.1,0l1.4,0.1l-0.4-0.1c1.1-0.7,2.1-0.1,3.6-0.6c-1.4,0.4-0.2,0.3-0.3,0.6c0.4,0.1,0.9,0.2,0.8,0.3
						c0.7-0.2,1.1,0.2,2.1-0.2c0,0.1,0.7,0,0.6,0.3c0.9-0.1-0.2-0.2-0.1-0.3c1.3-0.3,3.2,0.4,5.1-0.1c1.7-0.2,2-0.5,3.5-0.7
						c0.5,0.2-0.4,0.4-0.4,0.4c0.8,0.1,1.5,0.1,2.3,0c-0.2,0.1,0,0.2,0.2,0.3c0.6,0,0.4-0.4,1.3-0.2c-0.1,0.1-0.3,0.3-0.6,0.4
						c0.8-0.1,1.5-0.3,2.3-0.4c0.2,0.2-0.5,0.3-0.7,0.4c0.9-0.1,2.3-0.2,2.5-0.4l-0.6-0.1c0.3,0,0.2,0.2-0.1,0.3
						c-0.7,0.2-1.1-0.1-1.1-0.2l0.6-0.1c-0.6-0.6-2.2,0.1-3.3,0.1l0.5-0.4l-1.1,0.3c-0.2-0.1-0.4-0.3,0.1-0.4
						c-0.8-0.2-0.7,0.1-1.4-0.1c-0.1,0,0-0.1,0-0.1l-0.8,0.1c0.2-0.1-0.1-0.3,0.3-0.2c-1.4-0.2-2.3,0.3-2.8,0l0.1,0
						c-1.9,0.1-0.2,0.3-1.6,0.7l-1-0.8l-0.2,0.3c-0.2,0-0.6,0-0.5-0.2c-0.7,0.2,0.1,0.1-0.3,0.3c-1-0.3-2.7,0.1-2.9-0.4
						c-0.3,0.2,0.9,0.2-0.1,0.3c-0.3-0.5-1.2,0.1-2.1-0.2c0.3-0.3,1.1-0.1,0.2-0.4c-0.5,0.5-1.7-0.1-2.5,0c0,0.4-1.6,0.2-2.9,0.3
						c0.1-0.1-2.3-0.2-3.5-0.3l0-0.1c-0.2,0.4-1.4,0.3-2.3,0.4c0-0.2,0.2-0.3,0.7-0.4l-0.8,0c-0.2,0.1-0.4,0.2-1,0.2l0.2-0.3
						c-1.1,0-2.2,0.3-3.6,0.1c-0.1,0.3,1.1,0.7-0.4,0.9c-0.1-0.1-0.1-0.4,0.3-0.4c-0.1,0-0.5,0.1-0.7,0.1l0.6-0.2
						c-0.6-0.1-0.3,0.2-0.8,0.2c0-0.2-0.4-0.1-0.3-0.3c0.1,0,0.4,0.1,0.6,0c-0.6,0-1.3-0.2-1.5-0.3c0.1,0.1,0,0.3-0.4,0.3
						c-1.1,0-0.4-0.2-1-0.3c-0.3,0.1-1,0-1,0.3c-0.3,0-0.4-0.1-0.5-0.2c-0.6,0.1-2.6,0-2,0.4l0.1,0c0,0-0.1,0-0.1,0c0,0,0,0,0,0h0
						c-1.9,0.3-3.8-0.2-5.7,0l0-0.1c-1.1,0.1-2.4,0.1-3.2,0.3c-0.3,0-0.8-0.2-0.6-0.3c-0.8,0.1-0.9,0.2-2.1,0
						c0.8-0.2-0.3-0.2,0.9-0.1c-1.1-0.1-1.3-0.2-2.5,0c0.4-0.3-0.8-0.3-1.3-0.2l0.8,0.2c-0.6,0-1.1,0-1.6,0l0.3-0.3
						c-2.2-0.4-4,0.7-5.7,0c-0.6,0.2,1.2,0.2,0.7,0.4c-1,0-2.1-0.5-2.4-0.5c-1.4-0.2-1.3,0.5-2.8,0.4c0.2,0.1,0.4,0.4-0.7,0.5
						c-1,0-1.3-0.5-0.6-0.6c0.2,0,0.4,0,0.4,0.1c0.3,0,0.8-0.1,0.4-0.2l-0.1,0.1c-0.5-0.1-1.9-0.1-1.6-0.3c-0.8,0.1-0.3,0.2,0.2,0.3
						c-1.3-0.2-2.1,0-3.4-0.1c0.2,0.1,0.4,0.2,0.2,0.2c-2-0.1-0.9,0.2-2.2,0.3c-0.8-0.2,0.3-0.4-1.1-0.3c-0.8-0.1-0.2-0.3,0.2-0.4
						c-1.2,0.2-2.3-0.2-3-0.2l0.7-0.1c-0.4,0.1-0.7,0.1-1,0.1l0.4,0.2c-0.4,0-0.7,0-0.7-0.1c-0.4,0.2,0.3,0.4-0.5,0.6
						c-0.5-0.1-1.6,0.1-1.7-0.2c1.6,0.1-0.2-0.3,1.2-0.4c-0.3,0-0.6,0-1,0c-0.1,0,0.1-0.1,0.2-0.1c-1.5-0.3-0.7,0.4-2.3,0.3
						c0.2-0.2-0.4-0.3-0.6-0.3c0.6,0,0.3,0.3-0.3,0.4c-1-0.1-1.1,0.1-1.6,0.1l0.6,0.1c-0.2,0.2-0.7,0.2-1.4,0.2
						c-0.1-0.1,0.6-0.1,0.4-0.2c-0.8,0.3-1.8-0.3-2.9-0.1c-0.5-0.1,0-0.3-0.5-0.4c-1.2,0.2-1.3-0.2-2.6-0.1c0.4,0.2,0.4,0.2-0.5,0.4
						l2.1-0.2l-1.4,0.3c0.6,0,1.4-0.2,1.7-0.1c-0.7,0.2-0.6,0.1-0.3,0.3c-0.9-0.4-1.7,0.2-2.8,0l0-0.6c-1.5-0.3-2.7,0.3-4.7,0.2
						l0.6,0.1c-0.3,0.2-1.2,0-1.9,0.1c0.1-0.2-0.3-0.3-0.6-0.4c0,0.1-1.5,0-1.6,0.4l-0.9-0.3c-1.6-0.1-1.8,0.6-3.4,0.5
						c0.5-0.2-0.2-0.4,0.8-0.5c-0.5,0-1,0-1,0.1c-0.3-0.1-1.4,0.3-1.9,0.1c-0.2,0.1-0.3,0.3-0.9,0.3c-0.1,0,0-0.1,0-0.1
						c0,0.1-0.9,0.1-0.4,0.4c-1.6-0.6-4.4,0-5.8-0.5c-1.1,0.1-2.5,0.1-3.5,0.1c0.1-0.1,0-0.1,0.2-0.1c-1.4-0.2-0.9,0.6-2.5,0.4
						c-0.8-0.3,0.8-0.2,0.3-0.3c-0.2-0.6-1.9,0.1-3-0.3l0.3,0c-0.8-0.2-2,0.2-3.3,0.2c0,0,0.1-0.1,0-0.1c-0.9,0.3-2.7,0.4-3.9,0.5
						c0.4-0.3,0.6-0.1,0.3-0.4c-0.6,0,0.2,0.4-1,0.5c-0.4-0.1-1.2-0.3-1.3-0.5l1.1,0c-0.6-0.4-1.4,0-2,0l0.1-0.2
						c-1.7,0.1-1.7,0.4-3.5,0.4l0.2,0.1c-1,0.4-0.8-0.2-1.8,0.1l-0.3-0.4c-0.6,0.1-2.3,0.4-3.4,0.5c0.7-0.3,2-0.4,2.9-0.6
						c-0.6,0-2.2,0-2.5,0.2c0.3,0,0.6-0.1,0.8-0.1c-0.8,0.3-1.8,0.5-3.1,0.5c0.2-0.8-3.3-0.2-4.3-0.8c-2.3,0.3-4.5-0.1-7.1-0.1
						c0.9,0.6-0.8,0-0.6,0.6c-0.6,0-0.8,0-0.9,0l-1.9-0.4c-0.4-0.2,0.6-0.1,0.5-0.3c-1.3,0-0.6-0.3-1.5-0.4c0.2,0.2-0.5,0.3-1.2,0.2
						l1.1,0.3c-1.9,0.3-1.6-0.5-3.5-0.2l0.6-0.2c-1,0.1-3.6,0-4.5,0.5c-0.2-0.1-0.4-0.2,0-0.3c-2.3-0.1-5.2,0.5-7,0.2l0.2-0.1
						c-0.4,0-0.8,0.3-1.3,0.1c0-0.1,0.2-0.1,0-0.2c-0.2,0.1-1.2,0.3-1.7,0.2l0.5-0.2c-2.3-0.2-3.5,0.4-5.4,0.5
						c0-0.4-1.8-0.6-2.7-0.7l0-0.1c-2.6-0.1-4.5,0.4-6.9,0.5c-1.5-0.5-5.1-0.2-7.6-0.5c0.4,0.1-0.1,0.3-0.5,0.4
						c-0.6-0.1-1.6,0.3-1.5-0.1l0.2,0c-0.4-0.4-1.6-0.3-2.5-0.3l-0.2,0.5c-2.4-0.8-6.3,0.3-7.6-0.4c-0.6,0.1-1.3,0.1-1.9,0.3l0-0.3
						c-1.6-0.1-2.4-0.1-4.4,0l0.4-0.2c-1.1,0-1.4,0.8-2.4,0.8l-0.3-0.4c-2,0-3.9-0.4-5.9,0c0-0.1,0.1-0.2,0.4-0.2
						c-0.9,0-3.6-0.3-3.2,0.3c0-0.4-2,0-3.1,0.1l0.2-0.3c-0.9,0.4-0.9,0.5-2.2,0.6c-0.3,0-0.3-0.2,0.1-0.2c-1-0.1-0.8,0.3-2,0.1
						l0.4-0.2c-1,0-0.9,0.1-1.5,0.3c-0.6,0.1-1.9-0.1-2.1-0.3c-0.1,0.2-0.7,0.4-1.3,0.3c-0.1-0.1,0.1-0.2,0.2-0.2
						c-1.7-0.2-2.5,0.3-3.7,0.1c0-0.1-0.1-0.1-0.2-0.2c1.3,0,2.4,0,2.3,0c0-0.3-1.1-0.3-0.2-0.7c-0.9,0.2-2.4,0.6-3.4,0.5
						c-0.1,0-0.1,0-0.1-0.1l0.1,0c-0.2,0-0.5,0-0.7,0c-0.3,0-0.6-0.1-0.9-0.1c-0.1-0.2-1.2-0.1-1.8-0.1c0,0.3-0.7,0.2,0,0.5
						c-0.1,0,0.1,0,0.5,0c0.1,0,0.2,0,0.2,0c0,0,0,0,0,0c0.4,0,0.8,0,1.3,0c-0.4,0.1-0.9,0.3-1.5,0.1c-0.3,0.2-0.6,0.4-0.8,0.5
						c-0.7-0.4-2.2-0.6-2.4-0.8c-1.6,0.2-3.9,0.1-4.9,0.6c-0.5,0.1-0.5-0.2-0.7-0.2c0.3-0.1,0.6,0,0.7-0.1c-0.9,0.1-2.8,0.1-3,0.4
						c-1.2-0.2,0.7-0.3-1-0.3l0.2-0.1c-3.2-0.6-5.2,0.9-8.7,0.2c0.2,0,0.4,0.1,0.4,0.1c-4-0.3-8.3,0.3-12.3-0.2
						c-1.1-0.1-1.3,0.1-1.9,0.3l-0.2-0.3l-1.2,0.3c-1.7,0.3-2.9-0.7-5-0.3l0.3,0.2c-0.8,0-2.4,0.1-2.3-0.1c-0.1,0-0.2,0.2-0.5,0.1
						l0-0.2l-1.9,0.3c-1.5-0.1,0.2-0.6-1.9-0.7c-0.8,0.1-2.2,0.5-1.9,0.6c0.3,0,0.8,0.1,0.8,0.3l-0.7,0.1c-0.1,0.5-0.7,0.9,1.1,1.3
						l1.2-0.3l0.4,0.2l-1,0c0.6,0.2,1,0,1.4-0.1c0.1,0.1,0.3,0.2,0.5,0.2l1.2-0.4c0.1,0.2-0.5,0.4,0.3,0.5c0.6-0.2-0.5-0.4,0.4-0.5
						c0.6,0.2,0.4,0.4,1.1,0.2c0.1,0.1,0,0.2-0.3,0.2c0.6-0.1,1.6-0.1,1.9-0.3c0.6,0.3,2.1-0.1,2,0.4c0.2-0.1,1.1-0.3,1.6-0.4
						c-1,0.5,2.1,0,1.8,0.6c0.8-0.5,2.8-0.2,4.1-0.5c-0.1,0-0.2,0.1-0.3,0.1c0.8,0,1,0.2,1.5,0.3c0.1-0.4,1.3-0.5,1.9-0.7
						c0.9,0.4-0.6,0.5-0.3,0.8c0-0.3,1.6-0.3,1.3-0.6c0.7,0.2,0.6,0.1,1,0.4c0.1-0.5,0.7-0.1,1.3-0.4c1,0.2,0.3,0.5,1.4,0.3
						C320.2,262.9,319.2,263.1,319.2,263.1z M346.2,262.2C346.2,262.3,346.2,262.3,346.2,262.2c-0.2,0-0.4,0-0.6,0
						C345.8,262.3,345.9,262.3,346.2,262.2z M348.5,262.2c-0.3,0-0.6,0-1,0c-0.1-0.1,0-0.2,0.2-0.2
						C347.6,262.1,348.2,262.2,348.5,262.2z M343.7,260.3c0.4,0,0.5,0,0.5,0.1c-0.2,0-0.4,0-0.6,0c0,0,0,0,0,0
						C343.6,260.4,343.6,260.3,343.7,260.3z"/>
					<path class="st9" d="M343,260.7c-0.1,0-0.1,0-0.1,0C343,260.7,343,260.7,343,260.7c0.1,0.1,0.2,0,0.2,0
						C343.2,260.7,343.1,260.7,343,260.7z"/>
					<path class="st9" d="M548.9,261.1L548.9,261.1C548.8,261.1,548.9,261.1,548.9,261.1C548.9,261.1,548.9,261.1,548.9,261.1z"/>
					<polygon class="st9" points="379.8,262.8 379.8,262.7 379.6,262.8 					"/>
					<path class="st9" d="M561.4,262c0,0,0.1,0.1,0.2,0.1C561.5,262.1,561.4,262.1,561.4,262z"/>
					<path class="st9" d="M566.8,262.1l0.8,0.1C567.2,262.2,566.9,262.1,566.8,262.1z"/>
					<path class="st9" d="M570.9,262.2c0.1,0,0.1-0.1,0.1-0.1c0,0,0,0,0,0L570.9,262.2z"/>
					<path class="st9" d="M504.9,262.6c-0.1,0-0.1,0-0.2,0C504.3,262.6,504.6,262.6,504.9,262.6z"/>
					<path class="st9" d="M524.5,261.9c-0.2,0.1-0.4,0.1-0.6,0.1C524.2,262.1,524.5,262.1,524.5,261.9z"/>
					<path class="st9" d="M482.9,262.9C482.9,262.9,482.9,262.9,482.9,262.9c0,0-0.1,0-0.1,0L482.9,262.9z"/>
					<path class="st9" d="M523,262.1c0.3,0.1,0.6,0,0.9,0C523.6,262,523.3,262,523,262.1z"/>
					<path class="st9" d="M588.9,262.4l0.2,0c0,0,0,0,0,0L588.9,262.4z"/>
					<path class="st9" d="M589.1,262.3l0.2,0C589.3,262.3,589.2,262.3,589.1,262.3z"/>
					<path class="st9" d="M589.8,262.2l-0.5,0.1C589.5,262.3,589.7,262.3,589.8,262.2z"/>
					<path class="st9" d="M583.4,262.2l-0.1,0.1C583.4,262.3,583.4,262.3,583.4,262.2z"/>
					<path class="st9" d="M581.7,262.3c0.4,0,1,0.2,1.6,0.2l0.1-0.1C583.1,262.5,582.1,262.1,581.7,262.3z"/>
					<path class="st9" d="M574.8,261l1.4,0.1c-0.2-0.1-0.6-0.3,0.1-0.3C574.5,260.5,576.6,261.1,574.8,261z"/>
					<path class="st9" d="M570.4,260.9c0.8-0.1,0-0.2,0-0.2C570,260.7,569.9,260.8,570.4,260.9z"/>
					<path class="st9" d="M539.1,260.9l0.1-0.3C538.6,260.6,539.1,260.7,539.1,260.9z"/>
					<polygon class="st9" points="533.1,262.2 533.6,262.3 533.9,262.1 					"/>
					<polygon class="st9" points="529.5,260.4 529.8,260.3 528.8,260.4 					"/>
					<path class="st9" d="M476.8,260.4l0.2,0.3C477.4,260.7,477.5,260.4,476.8,260.4z"/>
					<path class="st9" d="M454.1,260.8c-0.2-0.2-0.9-0.3-1.3-0.1C453.3,260.7,453.8,260.8,454.1,260.8z"/>
					<polygon class="st9" points="385.9,260.3 386.3,260.2 385.5,260.2 					"/>
				</g>
			</g>
		</g>
	</g>
</g>
</svg>
